<svg width="28" height="27" viewBox="0 0 28 27" fill="none" xmlns="http://www.w3.org/2000/svg">
<path d="M17.8028 14.2987C18.9138 13.431 19.7247 12.241 20.1228 10.8944C20.5208 9.54783 20.4862 8.11155 20.0237 6.7854C19.5612 5.45925 18.6938 4.30919 17.5422 3.49521C16.3907 2.68123 15.0122 2.24382 13.5986 2.24382C12.1849 2.24382 10.8064 2.68123 9.65488 3.49521C8.50332 4.30919 7.63596 5.45925 7.17345 6.7854C6.71095 8.11155 6.67631 9.54783 7.07435 10.8944C7.47239 12.241 8.28332 13.431 9.39432 14.2987C7.4906 15.0559 5.82954 16.3118 4.58822 17.9324C3.3469 19.553 2.57185 21.4777 2.3457 23.5012C2.32933 23.649 2.34243 23.7985 2.38426 23.9412C2.42609 24.0839 2.49582 24.217 2.58947 24.333C2.77861 24.5672 3.05372 24.7172 3.35427 24.75C3.65482 24.7828 3.95619 24.6958 4.19208 24.508C4.42798 24.3202 4.57908 24.0471 4.61214 23.7487C4.86098 21.5496 5.91725 19.5185 7.57915 18.0436C9.24106 16.5687 11.3921 15.7534 13.6212 15.7534C15.8504 15.7534 18.0014 16.5687 19.6633 18.0436C21.3252 19.5185 22.3815 21.5496 22.6303 23.7487C22.6611 24.0252 22.794 24.2805 23.0033 24.4654C23.2125 24.6503 23.4834 24.7517 23.7635 24.75H23.8882C24.1852 24.7161 24.4567 24.567 24.6435 24.3352C24.8303 24.1034 24.9173 23.8077 24.8854 23.5125C24.6582 21.4832 23.879 19.5536 22.6313 17.9305C21.3836 16.3073 19.7144 15.0519 17.8028 14.2987ZM13.5986 13.5C12.702 13.5 11.8257 13.2361 11.0802 12.7416C10.3348 12.2471 9.75381 11.5443 9.41073 10.7221C9.06765 9.89981 8.97788 8.99501 9.15279 8.12209C9.32769 7.24918 9.7594 6.44735 10.3933 5.81802C11.0273 5.18868 11.835 4.7601 12.7142 4.58647C13.5935 4.41283 14.5049 4.50195 15.3332 4.84254C16.1615 5.18314 16.8694 5.75991 17.3675 6.49993C17.8656 7.23995 18.1314 8.10998 18.1314 9C18.1314 10.1935 17.6539 11.3381 16.8038 12.182C15.9537 13.0259 14.8008 13.5 13.5986 13.5Z" fill="white"/>
</svg>
