<svg width="28" height="27" viewBox="0 0 28 27" fill="none" xmlns="http://www.w3.org/2000/svg">
<path d="M23.7976 18H7.93257C7.63202 18 7.34378 17.8815 7.13127 17.6705C6.91875 17.4595 6.79935 17.1734 6.79935 16.875C6.79935 16.5766 6.91875 16.2905 7.13127 16.0795C7.34378 15.8685 7.63202 15.75 7.93257 15.75H19.7634C20.5211 15.75 21.2571 15.4988 21.8546 15.0361C22.452 14.5734 22.8767 13.9259 23.061 13.1962L24.9308 5.895C24.9733 5.72896 24.977 5.55549 24.9416 5.38782C24.9063 5.22015 24.8328 5.06271 24.7269 4.9275C24.6167 4.78882 24.4751 4.67786 24.3137 4.60359C24.1522 4.52932 23.9755 4.49383 23.7976 4.5H7.6606C7.4268 3.84351 6.99419 3.27487 6.42207 2.87206C5.84994 2.46924 5.16632 2.25196 4.46492 2.25H3.3997C3.09915 2.25 2.81091 2.36853 2.59839 2.5795C2.38587 2.79048 2.26648 3.07663 2.26648 3.375C2.26648 3.67337 2.38587 3.95952 2.59839 4.1705C2.81091 4.38147 3.09915 4.5 3.3997 4.5H4.46492C4.72379 4.49251 4.97743 4.57327 5.18362 4.72884C5.3898 4.88441 5.5361 5.10539 5.59814 5.355L5.66613 5.895L7.6266 13.5C6.72496 13.5403 5.87636 13.9345 5.26749 14.5959C4.65862 15.2573 4.33936 16.1318 4.37993 17.0269C4.42051 17.922 4.81759 18.7644 5.48384 19.3689C6.15009 19.9733 7.03093 20.2903 7.93257 20.25H8.13655C7.95018 20.7598 7.89029 21.3066 7.96196 21.8442C8.03362 22.3819 8.23474 22.8944 8.54827 23.3385C8.8618 23.7826 9.27851 24.1452 9.76312 24.3955C10.2477 24.6458 10.786 24.7765 11.3322 24.7765C11.8785 24.7765 12.4167 24.6458 12.9013 24.3955C13.3859 24.1452 13.8027 23.7826 14.1162 23.3385C14.4297 22.8944 14.6308 22.3819 14.7025 21.8442C14.7742 21.3066 14.7143 20.7598 14.5279 20.25H17.2023C17.0159 20.7598 16.956 21.3066 17.0277 21.8442C17.0994 22.3819 17.3005 22.8944 17.614 23.3385C17.9275 23.7826 18.3443 24.1452 18.8289 24.3955C19.3135 24.6458 19.8517 24.7765 20.398 24.7765C20.9442 24.7765 21.4825 24.6458 21.9671 24.3955C22.4517 24.1452 22.8684 23.7826 23.1819 23.3385C23.4955 22.8944 23.6966 22.3819 23.7682 21.8442C23.8399 21.3066 23.78 20.7598 23.5936 20.25H23.7976C24.0982 20.25 24.3864 20.1315 24.5989 19.9205C24.8115 19.7095 24.9308 19.4234 24.9308 19.125C24.9308 18.8266 24.8115 18.5405 24.5989 18.3295C24.3864 18.1185 24.0982 18 23.7976 18ZM22.3471 6.75L20.8626 12.645C20.8005 12.8946 20.6543 13.1156 20.4481 13.2712C20.2419 13.4267 19.9882 13.5075 19.7294 13.5H9.9497L8.24987 6.75H22.3471ZM11.3322 22.5C11.1081 22.5 10.889 22.434 10.7026 22.3104C10.5163 22.1868 10.371 22.0111 10.2853 21.8055C10.1995 21.6 10.1771 21.3738 10.2208 21.1555C10.2645 20.9373 10.3724 20.7368 10.5309 20.5795C10.6894 20.4222 10.8913 20.315 11.1111 20.2716C11.331 20.2282 11.5588 20.2505 11.7659 20.3356C11.973 20.4208 12.1499 20.565 12.2745 20.75C12.399 20.935 12.4654 21.1525 12.4654 21.375C12.4654 21.6734 12.3461 21.9595 12.1335 22.1705C11.921 22.3815 11.6328 22.5 11.3322 22.5ZM20.398 22.5C20.1738 22.5 19.9547 22.434 19.7684 22.3104C19.582 22.1868 19.4368 22.0111 19.351 21.8055C19.2652 21.6 19.2428 21.3738 19.2865 21.1555C19.3303 20.9373 19.4382 20.7368 19.5967 20.5795C19.7551 20.4222 19.9571 20.315 20.1769 20.2716C20.3967 20.2282 20.6246 20.2505 20.8316 20.3356C21.0387 20.4208 21.2157 20.565 21.3402 20.75C21.4647 20.935 21.5312 21.1525 21.5312 21.375C21.5312 21.6734 21.4118 21.9595 21.1993 22.1705C20.9868 22.3815 20.6985 22.5 20.398 22.5Z" fill="white"/>
</svg>
