<svg width="210" height="32" viewBox="0 0 210 32" fill="none" xmlns="http://www.w3.org/2000/svg">
<rect width="9.36103" height="31.0484" fill="white"/>
<path d="M24.9627 0H15.6017L28.0831 31.0484H36.404L48.8853 0H39.5243L32.2435 17.3293L24.9627 0Z" fill="white"/>
<path d="M169.004 0H134.175V4.43548H163.549V15.5242H134.175V31.0484H139.21V19.9597H169.004V0Z" fill="white"/>
<path d="M179.48 4.11484H209.519V0H173.979V31.0484L209.519 30.6743V26.1854H179.48V4.11484Z" fill="white"/>
<path d="M55.1261 0V31.0484H64.4871V10.5847L73.8482 19.0524L83.2092 10.5847V31.0484H92.5702V0H83.2092L73.8482 8.46773L64.4871 0H55.1261Z" fill="white"/>
<path d="M108.172 31.0484H98.8109L110.252 0H116.493L127.934 31.0484H118.573L113.373 16.9355L108.172 31.0484Z" fill="white"/>
<path d="M116.146 21.875H110.599L109.212 26.1089H117.533L116.146 21.875Z" fill="white"/>
</svg>
