<svg width="28" height="27" viewBox="0 0 28 27" fill="none" xmlns="http://www.w3.org/2000/svg">
<path d="M23.8769 18.9338L21.5311 16.5487C21.0266 16.0726 20.3901 15.7571 19.7035 15.6428C19.0169 15.5286 18.3116 15.6207 17.6782 15.9075L16.6583 14.895C17.8601 13.3008 18.409 11.3138 18.1944 9.33394C17.9798 7.35412 17.0177 5.5285 15.5018 4.2246C13.9858 2.9207 12.0286 2.23533 10.024 2.30646C8.01953 2.37759 6.11658 3.19994 4.69827 4.60796C3.27995 6.01599 2.4516 7.90514 2.37995 9.89512C2.30829 11.8851 2.99867 13.8281 4.3121 15.3331C5.62553 16.8381 7.46448 17.7932 9.45877 18.0062C11.4531 18.2193 13.4546 17.6744 15.0605 16.4812L16.069 17.4825C15.7461 18.1121 15.6304 18.8264 15.7382 19.5247C15.8459 20.2231 16.1717 20.8702 16.6696 21.375L19.072 23.76C19.7095 24.392 20.5736 24.747 21.4745 24.747C22.3754 24.747 23.2395 24.392 23.8769 23.76C24.2007 23.4457 24.458 23.0703 24.6336 22.6559C24.8093 22.2415 24.8998 21.7965 24.8998 21.3469C24.8998 20.8973 24.8093 20.4522 24.6336 20.0378C24.458 19.6234 24.2007 19.2481 23.8769 18.9338ZM14.2672 14.1637C13.4742 14.949 12.4646 15.4833 11.3659 15.6992C10.2671 15.9151 9.12861 15.8029 8.09411 15.3767C7.0596 14.9505 6.17552 14.2296 5.55355 13.3049C4.93159 12.3801 4.59964 11.2932 4.59964 10.1812C4.59964 9.06933 4.93159 7.98236 5.55355 7.05764C6.17552 6.13293 7.0596 5.41195 8.09411 4.98579C9.12861 4.55963 10.2671 4.4474 11.3659 4.66329C12.4646 4.87918 13.4742 5.4135 14.2672 6.19875C14.7949 6.72126 15.2135 7.34199 15.4991 8.02537C15.7848 8.70875 15.9318 9.44137 15.9318 10.1812C15.9318 10.9211 15.7848 11.6537 15.4991 12.3371C15.2135 13.0205 14.7949 13.6412 14.2672 14.1637ZM22.2791 22.1175C22.1737 22.2229 22.0484 22.3066 21.9103 22.3638C21.7722 22.4209 21.6241 22.4503 21.4745 22.4503C21.3249 22.4503 21.1768 22.4209 21.0387 22.3638C20.9006 22.3066 20.7752 22.2229 20.6699 22.1175L18.2675 19.7325C18.1612 19.6279 18.0769 19.5035 18.0194 19.3664C17.9619 19.2293 17.9323 19.0823 17.9323 18.9338C17.9323 18.7852 17.9619 18.6382 18.0194 18.5011C18.0769 18.364 18.1612 18.2396 18.2675 18.135C18.3728 18.0296 18.4981 17.9459 18.6362 17.8887C18.7743 17.8316 18.9224 17.8022 19.072 17.8022C19.2216 17.8022 19.3698 17.8316 19.5079 17.8887C19.6459 17.9459 19.7713 18.0296 19.8766 18.135L22.2791 20.52C22.3853 20.6246 22.4696 20.749 22.5271 20.8861C22.5846 21.0232 22.6143 21.1702 22.6143 21.3187C22.6143 21.4673 22.5846 21.6143 22.5271 21.7514C22.4696 21.8885 22.3853 22.0129 22.2791 22.1175Z" fill="#181818"/>
</svg>
